<svg width="382" height="77" viewBox="0 0 382 77" fill="none" xmlns="http://www.w3.org/2000/svg">
<g clip-path="url(#clip0_1_985)">
<path d="M0 69.4278L7.97217 51.3346C14.9004 55.4365 24.1329 58.0696 32.2152 58.0696C39.2459 58.0696 41.7666 56.5932 41.7666 54.0704C41.7666 44.8126 1.14647 52.2821 1.14647 24.8283C1.14647 11.1527 12.5846 0 35.3585 0C45.2288 0 55.4066 2.10422 63.0713 6.4192L55.6192 24.4059C48.3759 20.7264 41.573 18.9342 35.1535 18.9342C27.914 18.9342 25.6021 21.0384 25.6021 23.565C25.6021 32.4004 66.2222 25.0375 66.2222 52.1755C66.2222 65.6418 54.784 77.0038 32.0102 77.0038C19.7292 77.0038 7.34579 73.9521 0 69.4278Z" fill="white"/>
<path d="M97.9134 20.9357H76.3999V1.68567H144.198V20.9357H122.68V75.3182H97.9134V20.9357Z" fill="white"/>
<path d="M191.526 56.8064H184.81V75.3182H160.04V1.68567H195.413C215.875 1.68567 228.893 12.4161 228.893 29.4629C228.893 40.0867 223.855 48.0813 215.036 52.6055L230.464 75.3258H204.016L191.526 56.8064ZM193.834 20.8291H184.81V38.0815H193.834C200.667 38.0815 203.909 34.8205 203.909 29.4553C203.909 24.0901 200.656 20.8291 193.834 20.8291Z" fill="white"/>
<path d="M247.669 1.68567H272.436V75.3182H247.669V1.68567Z" fill="white"/>
<path d="M359.435 75.3182L359.226 41.7648L343.282 68.6935H332.36L316.415 42.9215V75.3182H293.843V1.68567H314.202L338.119 40.9201L361.42 1.68567H381.81L382.019 75.3182H359.435Z" fill="white"/>
<path d="M272.53 1.71228H247.676L260.105 23.2872L272.53 1.71228Z" fill="#DA1E28"/>
</g>
<defs>
<clipPath id="clip0_1_985">
<rect width="382" height="77" fill="white"/>
</clipPath>
</defs>
</svg>
