<svg width="134" height="27" viewBox="0 0 134 27" fill="none" xmlns="http://www.w3.org/2000/svg">
<g clip-path="url(#clip0_1_975)">
<path d="M0 24.3448L2.79652 18.0004C5.22683 19.4388 8.46547 20.3621 11.3006 20.3621C13.7669 20.3621 14.6511 19.8444 14.6511 18.9598C14.6511 15.7135 0.402167 18.3327 0.402167 8.70602C0.402167 3.9107 4.41451 0 12.4032 0C15.8656 0 19.4358 0.737843 22.1245 2.25089L19.5104 8.55791C16.9696 7.26769 14.5832 6.63926 12.3313 6.63926C9.79182 6.63926 8.98083 7.3771 8.98083 8.26304C8.98083 11.3612 23.2298 8.7794 23.2298 18.2953C23.2298 23.0172 19.2174 27.0013 11.2287 27.0013C6.92073 27.0013 2.5768 25.9313 0 24.3448Z" fill="#161616"/>
<path d="M34.3464 7.34106H26.7998V0.591064H50.5822V7.34106H43.0343V26.4103H34.3464V7.34106Z" fill="#161616"/>
<path d="M67.1846 19.9191H64.8288V26.4103H56.1396V0.591064H68.5482C75.726 0.591064 80.2923 4.35367 80.2923 10.3311C80.2923 14.0564 78.5251 16.8596 75.4317 18.4461L80.8436 26.4129H71.5658L67.1846 19.9191ZM67.9942 7.30371H64.8288V13.3532H67.9942C70.3913 13.3532 71.5285 12.2098 71.5285 10.3285C71.5285 8.44716 70.3873 7.30371 67.9942 7.30371Z" fill="#161616"/>
<path d="M86.8784 0.591064H95.5663V26.4103H86.8784V0.591064Z" fill="#161616"/>
<path d="M126.084 26.4103L126.011 14.6448L120.418 24.0873H116.587L110.994 15.0504V26.4103H103.076V0.591064H110.217L118.607 14.3486L126.781 0.591064H133.933L134.007 26.4103H126.084Z" fill="#161616"/>
<path d="M95.5998 0.600342H86.8813L91.2413 8.16557L95.5998 0.600342Z" fill="#DA1E28"/>
</g>
<defs>
<clipPath id="clip0_1_975">
<rect width="134" height="27" fill="white"/>
</clipPath>
</defs>
</svg>
